<svg width="102" height="36" viewBox="0 0 102 36" fill="none" xmlns="http://www.w3.org/2000/svg">
<path d="M39.8498 8.68824H33.9647C31.8262 8.68683 29.7159 9.1687 27.7963 10.0967C25.8767 11.0248 24.199 12.3742 22.8924 14.0411C21.587 12.3738 19.9101 11.0241 17.991 10.096C16.0719 9.16792 13.9619 8.68627 11.8238 8.68824H0.0153361V13.4145C0.0213596 13.7169 0.147615 14.0049 0.36698 14.2167C0.586345 14.4284 0.881314 14.547 1.18852 14.547H11.9235C14.0212 14.547 16.033 15.3674 17.5163 16.8279C18.9996 18.2884 19.8329 20.2692 19.8329 22.3347C19.8329 24.4001 18.9996 26.3809 17.5163 27.8414C16.033 29.3019 14.0212 30.1224 11.9235 30.1224H5.99242V24.241H1.17318C0.862033 24.241 0.563632 24.3627 0.343618 24.5793C0.123604 24.796 0 25.0898 0 25.3961V30.1148H5.92342V35.9773H11.889C14.0097 35.9797 16.1026 35.5019 18.0058 34.581C19.9091 33.66 21.5718 32.3205 22.8655 30.666C24.1606 32.3281 25.8273 33.6739 27.7363 34.599C29.6453 35.524 31.7451 36.0034 33.8727 36H39.8422V30.1299H45.7579V25.4112C45.758 25.1088 45.6375 24.8183 45.4225 24.6023C45.2074 24.3863 44.9149 24.262 44.6077 24.2561H39.8191V30.1186H33.8727C31.775 30.1186 29.7632 29.2981 28.2799 27.8376C26.7966 26.3771 25.9633 24.3963 25.9633 22.3309C25.9633 20.2655 26.7966 18.2846 28.2799 16.8241C29.7632 15.3637 31.775 14.5432 33.8727 14.5432H44.6077C44.9128 14.5432 45.2053 14.4239 45.421 14.2115C45.6367 13.9991 45.7579 13.711 45.7579 13.4107V8.69957L39.8498 8.68824Z" fill="white"/>
<path d="M54.9782 9.63953C54.5182 9.38811 53.9972 9.2654 53.4715 9.28468H51.3896V14.6225H53.4715C53.9716 14.6334 54.4663 14.5191 54.9092 14.2903C55.3123 14.0769 55.6439 13.753 55.8638 13.3578C56.0989 12.9239 56.2164 12.4377 56.2051 11.946C56.211 11.4802 56.1045 11.0196 55.8945 10.6021C55.6929 10.1989 55.3739 9.86376 54.9782 9.63953ZM54.5488 12.6595C54.4616 12.862 54.3164 13.0352 54.1309 13.1578C53.9349 13.2827 53.7049 13.3459 53.4715 13.339H52.8772V10.5606H53.4715C53.7024 10.5549 53.9301 10.6153 54.1271 10.7343C54.3138 10.8516 54.4606 11.0212 54.5488 11.2212C54.6496 11.4497 54.6993 11.6969 54.6945 11.946C54.6974 12.1925 54.6478 12.4368 54.5488 12.6633" fill="white"/>
<path d="M58.72 9.28467H57.2324V14.6224H58.72V9.28467Z" fill="white"/>
<path d="M60.5337 13.9317C60.7747 14.1671 61.0616 14.352 61.3772 14.4753C61.6974 14.5979 62.0381 14.6607 62.3817 14.6603C62.8721 14.6616 63.3464 14.4872 63.7159 14.1696V14.6226H64.9466V11.78H62.7152V12.8332H63.643C63.5131 12.9701 63.3632 13.0871 63.1983 13.1805C62.9891 13.2975 62.7526 13.3587 62.512 13.358C62.3354 13.3603 62.1602 13.3256 61.9983 13.256C61.8513 13.1898 61.7206 13.0933 61.6149 12.9729C61.5013 12.8432 61.4141 12.6933 61.358 12.5312C61.2943 12.3478 61.2632 12.155 61.266 11.9612C61.2645 11.7678 61.2943 11.5754 61.3542 11.3912C61.4074 11.2275 61.4934 11.0761 61.6072 10.9458C61.7134 10.823 61.8439 10.7229 61.9906 10.6513C62.1443 10.5809 62.3119 10.5448 62.4813 10.5456C62.7213 10.5463 62.9564 10.613 63.16 10.7381C63.3672 10.8578 63.5339 11.0351 63.6392 11.2478L64.7472 10.4135C64.5492 10.0454 64.2396 9.74723 63.8616 9.56036C63.4527 9.34905 62.9968 9.24136 62.535 9.24704C62.1607 9.24355 61.7894 9.31282 61.4424 9.45089C61.114 9.58177 60.8146 9.77406 60.5605 10.0171C60.3095 10.2583 60.1089 10.5456 59.9701 10.8627C59.8238 11.1922 59.7506 11.5487 59.7554 11.9084C59.7478 12.3046 59.8195 12.6983 59.9663 13.0673C60.0946 13.3918 60.2905 13.6863 60.5414 13.9317" fill="white"/>
<path d="M67.5462 9.28467H66.0586V14.6224H67.5462V9.28467Z" fill="white"/>
<path d="M70.034 14.6224H71.5254V10.5606H73.0819V9.28467H68.4697V10.5606H70.034V14.6224Z" fill="white"/>
<path d="M76.4291 9.28467H74.7652L73.0322 14.6224H74.5658L74.8457 13.5768H76.3792L76.6591 14.6224H78.1697L76.4291 9.28467ZM75.0949 12.5991L75.5971 10.7116L76.1032 12.5991H75.0949Z" fill="white"/>
<path d="M80.47 9.28467H78.9824V14.6224H82.9275V13.3427H80.47V9.28467Z" fill="white"/>
<path d="M54.6563 20.7869C54.5432 20.8796 54.413 20.9501 54.2729 20.9945C54.1375 21.0358 53.9968 21.0574 53.855 21.0587C53.6734 21.0615 53.4936 21.0227 53.3298 20.9454C53.1797 20.8707 53.0487 20.7636 52.9464 20.6321C52.8379 20.4967 52.7548 20.3433 52.701 20.1791C52.6457 20.0069 52.6172 19.8274 52.6167 19.6468C52.6183 19.4783 52.6428 19.3107 52.6895 19.1485C52.7362 18.9871 52.8114 18.835 52.9119 18.6993C53.0132 18.5631 53.1442 18.4509 53.2953 18.3709C53.467 18.2841 53.6582 18.2413 53.8512 18.2463C53.9937 18.2468 54.1355 18.2659 54.2729 18.303C54.4206 18.3424 54.5587 18.4104 54.6793 18.503C54.8104 18.6097 54.9098 18.7492 54.9669 18.9069L56.1171 18.1104C55.92 17.7513 55.62 17.4573 55.2544 17.2648C54.8372 17.0462 54.3698 16.937 53.8972 16.9477C53.502 16.9435 53.1102 17.0207 52.747 17.1742C52.0967 17.4614 51.5872 17.9888 51.3285 18.6427C51.204 18.9475 51.1403 19.273 51.1406 19.6015C51.1405 19.9446 51.2082 20.2843 51.34 20.6019C51.4694 20.9291 51.6592 21.2298 51.8997 21.489C52.1423 21.754 52.4354 21.9695 52.7624 22.1232C53.1081 22.2813 53.4854 22.3612 53.8665 22.3572C54.1855 22.356 54.5023 22.3064 54.8059 22.21C55.1113 22.1191 55.3981 21.976 55.6532 21.7872C55.8899 21.6171 56.0743 21.3859 56.1861 21.1191L54.9746 20.4056C54.9195 20.552 54.827 20.682 54.7062 20.7831" fill="white"/>
<path d="M61.9636 20.6739C62.0999 20.3549 62.1691 20.012 62.1668 19.6659C62.1672 19.3257 62.1008 18.9886 61.9713 18.6731C61.8435 18.3502 61.6564 18.0533 61.4192 17.7974C61.1777 17.5341 60.8841 17.3222 60.5566 17.1745C60.2031 17.0202 59.8199 16.9429 59.4332 16.948C59.0528 16.9438 58.6755 17.017 58.3252 17.1632C57.9946 17.3032 57.6961 17.5074 57.4472 17.7634C57.2014 18.0122 57.0051 18.3041 56.8683 18.6241C56.7313 18.9455 56.6621 19.291 56.6651 19.6395C56.6695 19.9832 56.7411 20.3229 56.876 20.6399C57.0057 20.9624 57.1955 21.2582 57.4357 21.5119C57.6794 21.7735 57.9741 21.984 58.3022 22.131C58.6543 22.2856 59.0363 22.3628 59.4217 22.3575C59.8052 22.363 60.1854 22.2884 60.5374 22.1385C61.1921 21.8509 61.7096 21.3265 61.9828 20.6739M60.6026 20.1529C60.5551 20.3164 60.4799 20.4708 60.3802 20.6097C60.282 20.7487 60.1503 20.8616 59.9968 20.9381C59.8226 21.0216 59.6307 21.063 59.4371 21.0589C59.2461 21.0643 59.0567 21.0241 58.885 20.9419C58.734 20.8668 58.6027 20.7583 58.5016 20.6248C58.3999 20.4893 58.3233 20.3372 58.2754 20.1756C58.2231 20.0068 58.1973 19.8311 58.1987 19.6546C58.1979 19.4797 58.2224 19.3056 58.2715 19.1375C58.3165 18.9753 58.3919 18.823 58.4939 18.6882C58.6027 18.5455 58.7449 18.4307 58.9085 18.3538C59.072 18.2769 59.2521 18.2401 59.4332 18.2466C59.6236 18.2423 59.8125 18.281 59.9853 18.3598C60.1368 18.4325 60.2683 18.5399 60.3687 18.6731C60.473 18.8061 60.551 18.9572 60.5987 19.1186C60.6984 19.4564 60.6984 19.8151 60.5987 20.1529" fill="white"/>
<path d="M67.2811 22.3196H68.7686V16.9856H67.1507L65.9737 19.4959L64.8082 16.9856H63.1826V22.3196H64.6702V19.511L65.5788 21.4853H66.3724L67.2811 19.511V22.3196Z" fill="white"/>
<path d="M74.1824 19.511V22.3196H75.6699V16.9856H74.052L72.875 19.4959L71.7095 16.9856H70.0801V22.3196H71.5715V19.511L72.4801 21.4853H73.2737L74.1824 19.511Z" fill="white"/>
<path d="M80.3128 19.7224C80.3126 19.8887 80.2946 20.0544 80.2591 20.217C80.2272 20.3691 80.1716 20.5156 80.0942 20.6511C80.024 20.7729 79.9238 20.8754 79.8029 20.9493C79.665 21.0256 79.5086 21.0634 79.3505 21.0588C79.2021 21.0639 79.0552 21.0285 78.9259 20.9566C78.7967 20.8846 78.6902 20.7789 78.6182 20.6511C78.5375 20.5195 78.4804 20.3752 78.4495 20.2245C78.4138 20.0595 78.3958 19.8912 78.3958 19.7224V16.9856H76.9082V19.7224C76.9066 20.0618 76.953 20.3998 77.0463 20.7266C77.132 21.0333 77.2779 21.3206 77.4757 21.5722C77.6807 21.8222 77.9437 22.0203 78.2425 22.1497C78.5951 22.2965 78.9755 22.3673 79.3581 22.3573C79.7334 22.3664 80.1066 22.2996 80.4546 22.161C80.7521 22.0364 81.015 21.8436 81.2214 21.5986C81.4247 21.3511 81.5759 21.0662 81.6662 20.7605C81.7681 20.4237 81.8185 20.0739 81.8157 19.7224V16.9856H80.3281L80.3128 19.7224Z" fill="white"/>
<path d="M86.3707 19.696L84.1968 16.9856H83.0352V22.3196H84.5266V19.696L86.6774 22.3196H87.8621V16.9856H86.3707V19.696Z" fill="white"/>
<path d="M90.6604 16.9856H89.1729V22.3234H90.6604V16.9856Z" fill="white"/>
<path d="M91.584 18.2615H93.1521V22.3196H94.6396V18.2615H96.1962V16.9856H91.584V18.2615Z" fill="white"/>
<path d="M100.181 16.9856L99.1877 19.1637L98.2216 16.9856H96.6113L98.4478 20.5378V22.3196H99.9315V20.5529L101.799 16.9856H100.181Z" fill="white"/>
<path d="M52.1335 24.6826H51.6006V30.0204H55.2658V29.5561H52.1335V24.6826Z" fill="white"/>
<path d="M56.9684 27.5176H59.6176V27.0759H56.9684V25.1507H60.0049V24.6826H56.4316V30.0204H60.0739V29.5561H56.9684V27.5176Z" fill="white"/>
<path d="M64.7897 29.1561C64.6112 29.298 64.4087 29.4079 64.1916 29.4807C63.9889 29.5481 63.7767 29.5838 63.5628 29.5864C63.2835 29.587 63.0079 29.5237 62.7577 29.4014C62.5119 29.2785 62.2931 29.1092 62.1136 28.9031C61.9273 28.6925 61.7829 28.4491 61.688 28.1859C61.5845 27.9144 61.5325 27.6265 61.5346 27.3365C61.5345 27.0646 61.5785 26.7945 61.665 26.5362C61.7484 26.2777 61.8782 26.0361 62.0484 25.8228C62.2195 25.6115 62.4337 25.4379 62.6772 25.3132C62.9447 25.1815 63.2407 25.1154 63.5398 25.1206C63.7439 25.1215 63.9467 25.152 64.1417 25.2112C64.3476 25.2743 64.5399 25.3741 64.7091 25.5057C64.8988 25.6575 65.0509 25.8499 65.1539 26.0682L65.5718 25.8115C65.4036 25.4651 65.1373 25.1741 64.805 24.9734C64.4325 24.7465 64.0006 24.6323 63.5628 24.645C63.1868 24.6396 62.8145 24.7184 62.474 24.8753C62.163 25.0215 61.8872 25.2313 61.665 25.4906C61.4484 25.7454 61.2784 26.0353 61.1628 26.3475C61.0489 26.6548 60.9905 26.9793 60.9902 27.3063C60.9911 27.6467 61.0534 27.9841 61.1743 28.3029C61.2951 28.6267 61.4729 28.9269 61.6995 29.19C61.9217 29.4518 62.1956 29.6663 62.5046 29.8205C62.8211 29.9805 63.1725 30.0621 63.5283 30.0583C63.8154 30.0552 64.1002 30.0068 64.3717 29.9148C64.6497 29.8191 64.909 29.6774 65.1385 29.4958C65.3667 29.3176 65.5448 29.085 65.6561 28.8201L65.2114 28.5936C65.1092 28.8124 64.957 29.0049 64.7666 29.1561" fill="white"/>
<path d="M70.3489 29.1559C70.169 29.2979 69.9653 29.4077 69.7469 29.4805C69.5455 29.5476 69.3346 29.5833 69.122 29.5862C68.8426 29.5877 68.5668 29.5243 68.3169 29.4013C68.0705 29.2792 67.8515 29.1098 67.6728 28.903C67.4817 28.6938 67.3309 28.452 67.2281 28.1895C67.1264 27.9175 67.0745 27.63 67.0747 27.3401C67.0765 27.0684 67.1204 26.7985 67.205 26.5399C67.2884 26.2813 67.4183 26.0397 67.5884 25.8264C67.7585 25.6141 67.973 25.4403 68.2172 25.3168C68.4845 25.1842 68.7806 25.1181 69.0798 25.1242C69.2827 25.1248 69.4843 25.1553 69.6779 25.2148C69.885 25.2779 70.0786 25.3777 70.2492 25.5093C70.4377 25.6613 70.5885 25.8537 70.6901 26.0718L71.1118 25.8151C70.9412 25.4704 70.6755 25.18 70.345 24.977C69.9724 24.7505 69.5406 24.6363 69.1028 24.6486C68.7257 24.6436 68.3522 24.7223 68.0102 24.8789C67.6998 25.0261 67.4242 25.2357 67.2012 25.4942C66.9858 25.7491 66.8171 26.0391 66.7028 26.3511C66.589 26.6584 66.5306 26.9829 66.5303 27.3099C66.5311 27.6502 66.5934 27.9877 66.7143 28.3065C66.8339 28.6301 67.0104 28.9304 67.2357 29.1936C67.4579 29.4554 67.7318 29.6699 68.0408 29.824C68.3574 29.9841 68.7087 30.0657 69.0645 30.0619C69.3517 30.0593 69.6365 30.0108 69.908 29.9184C70.1866 29.8243 70.4462 29.6824 70.6747 29.4994C70.9029 29.3212 71.0811 29.0886 71.1923 28.8237L70.7514 28.5972C70.6493 28.816 70.4971 29.0085 70.3067 29.1597" fill="white"/>
<path d="M73.067 27.5176H75.7163V27.0759H73.067V25.1507H76.1035V24.6826H72.5303V30.0204H76.1725V29.5561H73.067V27.5176Z" fill="white"/>
<path d="M27.0865 3.79594L23.4788 0.255046C23.3975 0.174238 23.3008 0.110093 23.1942 0.0663161C23.0876 0.0225393 22.9732 0 22.8577 0C22.7422 0 22.6279 0.0225393 22.5213 0.0663161C22.4146 0.110093 22.3179 0.174238 22.2366 0.255046L18.6289 3.8035L22.8462 7.95594L27.0865 3.79594Z" fill="white"/>
</svg>
